<svg xmlns="http://www.w3.org/2000/svg" xmlns:xlink="http://www.w3.org/1999/xlink" version="1.1" id="Layer_1" x="0px" y="0px" style="enable-background:new 0 0 1366 768;" xml:space="preserve" viewBox="473.78 205.55 334.22 413.11">
<style type="text/css">
	.st0{display:none;}
	.st1{fill:#FFFFFF;}
	.st2{fill:#999999;}
	.st3{fill:#F2D658;}
</style>
<rect class="st0" width="1366" height="768"/>
<path class="st1" d="M770.7,280.85c0,0-10.5,9.21-20.27,22.85c0,0-16.59-23.04-42.94-34.09c0,0,5.13-11.77-1.58-32.88  c0,0,39.16,12.82,64.79,42.96"/>
<path class="st1" d="M673.48,246.28c-8.14-9.57-6.13-20.97-6.13-20.97c-12.64,11.87-11.2,29.2-9.38,32.46  c6.31,11.3,12.83,13.4,20.2,16.47c7.37,3.06,15.13,8.52,15.13,8.52c-2.87-9-12.26-22.12-12.26-22.12  c38.87,15.32,34.95,43.06,34.95,43.06c-4.5-4.14-8.43-7.16-8.43-7.16c2.49,8.71,14.07,21.83,16.66,24.13  c8.47,7.53,15.51,17.14,15.51,17.14l-15.03,0.1c-0.67-1.05-2.87-1.72-2.87-1.72c2.49,5.55,4.98,11.01,4.98,11.01  c-2.11,3.16-12.45,9.57-18.38,9.96c-16.27,1.05-20.59-6.8-29.39-9.38s-16.37-2.01-24.8,3.35c-8.43,5.36-9,14.74-9,14.74  c-5.46-20.59,4.79-29.01,14.6-34.95c9.81-5.94,29.17-2.91,29.17-2.91s-10.88-6.89-15.58-7.52c-4.7-0.63-13.86-0.78-20.75-0.08  s-14.88,6.58-14.88,6.58s0.16-6.89,0.16-9.86s3.37-3.37,3.37-3.37c-15.03-8.06-27.56-2.98-27.56-2.98  c10.1-13.47,27.87-19.02,43.61-13.62c15.74,5.4,17.85,13.15,29.75,17.15c11.9,3.99,18.79,10.1,18.79,10.1  c-0.94-2.74-3.91-9.79-4.46-11.98c-3.3-13.19-11.27-19.89-16.68-23.1c-5.4-3.21-9.63-2.35-19.89-2.82  c-10.26-0.47-17.54-8.06-20.51-14.64c-2.98-6.58-3.91-21.06-0.39-29.75c3.52-8.69,12.29-19.73,17.77-24.98s17.15-11.59,17.15-11.59  C674.33,218.66,671.77,232.1,673.48,246.28z"/>
<path class="st1" d="M708.23,208.36c0,0-38.59,16.09-13.69,47.3c0,0-1.44-16.37,1.44-23.17c0,0,0.48,11.3,5.74,17.23  C701.72,249.72,697.2,225.4,708.23,208.36z"/>
<path class="st1" d="M626.98,251.64c3.83-22.47,14.04-30.13,14.04-30.13s-20.81-0.77-45.19,5.74  c-24.38,6.51-63.32,26.94-86.04,57.32s-28.72,49.53-34.6,84.64s5.55,99.96,54.77,138.06c0,0,36-1.15,63-29.68  c0,0-14.62,24.13-35.55,31.98c0,0,33.03,1.25,59.49-36c5.17-7.28,19.72-37.91-9.19-61.85c0,0,11.49,27.45-3.32,44.04  c-14.81,16.6-22.72,24.13-57.19,28.47c0,0-31.66-28.34-39.7-65.49c-8.04-37.15,3.13-78.83,10.88-92.33  c7.76-13.5,17.87-26.7,30.16-39.64C579.36,254.32,626.98,251.64,626.98,251.64z"/>
<path class="st1" d="M605.4,302.06c0,0,9.96-21.96,33.57-24.13c0,0-10.98-8.15-28.34-5.62c-21.79,3.17-35.18,14.52-43.91,28.85  C566.72,301.17,587.28,292.11,605.4,302.06z"/>
<path class="st1" d="M599.02,309.72c0,0-5.11,1.15-6.77,15.32c0,0-23.74,1.02-39.32,11.62s-18.13,14.68-18.13,14.68  s1.53-6.64,7.02-15.06c5.49-8.43,18-19.53,30.26-23.87C584.34,308.06,594.55,308.83,599.02,309.72z"/>
<path class="st1" d="M625.7,327.47c0,0-40.8,13.07-27.96,50.17c1.72,4.98,10.34,17.04,30.83,26.81s51.51,29.3,58.6,52.47  c7.09,23.17,4.4,30.83,0.96,40.79c0,0,12.26-5.17,14.36-29.68c2.11-24.51-6.97-43.65-28.91-60.89c-8.04-6.32-47.49-22.4-57.64-36.57  S613.26,340.87,625.7,327.47z"/>
<path class="st2" d="M587.6,374.96c0,0-15.32,15.7-11.3,38.49c4.02,22.79,8.43,25.28,13.4,33.89c0,0,8.04-9.77,3.06-39.64  c0,0-2.49,3.45-2.68,10.34C590.09,418.04,583.38,400.62,587.6,374.96z"/>
<path class="st2" d="M547.96,395.26c0,0,11.49-23.36,26.04-31.4c0,0-21.4,34.81-15.51,69.32c1.34,7.85,8.23,18.96,8.23,18.96  s-15.32-3.83-25.28-19.72c-9.96-15.89-11.3-39.64-2.11-60.32c9.19-20.68,31.02-31.21,43.28-33.13c0,0-18.19,14.94-26.04,29.3  C548.72,382.62,548.53,389.32,547.96,395.26z"/>
<path class="st1" d="M661.59,385.24c0,0,1.77-28.28,30.75-21.9c0,0-16.6,8.55-17.47,28.68L661.59,385.24z"/>
<path class="st2" d="M546.3,618.66c0,0-14.81-30.64,0.77-54.77s59.87-28.21,89.23-66.19c0,0-5.89,22.91-41.05,46.4  c0,0,26.25-13.39,40.03-34.53c13.79-21.13,20.55-36.07,20.81-55.35c0,0,6,3.19,4.98,20.68c0,0,5.87-24.13-7.53-46.72  c0,0,24.51,14.3,18.26,52.85s-49.4,61.66-63.96,71.62c-14.55,9.96-24.77,12-39.57,26.68C553.45,594.02,550.77,597.21,546.3,618.66z"/>
<path class="st3" d="M671.28,520.68c0,0-17.43,25.85-36,33.89c0,0,38.3,3.45,76.4-15.32c38.11-18.77,90.19-64.72,96.32-117.77  c0,0-103.98-35.04-118.15-38.3l-2.3,15.89c0,0,9.77,5.17,17.23,22.79l64.72,20.49C769.51,442.36,747.68,499.23,671.28,520.68z"/>
<path class="st3" d="M736.38,327.47c0,0,15.32,12.51-8.17,32.04l64.85,1.02l5.87-33.06H736.38z"/>
<path class="st1" d="M676.26,296.64c0,0,2.68,6.89,5.84,9.29c3.16,2.39,8.9,1.82,8.9,1.82s-1.61-6.32-4.82-8.71  C682.96,296.64,676.26,296.64,676.26,296.64z"/>
</svg>